<?xml version="1.0" encoding="iso-8859-1"?>
<!-- Uploaded to: SVG Repo, www.svgrepo.com, Generator: SVG Repo Mixer Tools -->
<svg fill="currentColor" height="800px" width="800px" version="1.1" id="Layer_1" xmlns="http://www.w3.org/2000/svg" xmlns:xlink="http://www.w3.org/1999/xlink" 
	 viewBox="0 0 512.002 512.002" xml:space="preserve">
<g>
	<g>
		<path d="M323.516,30.805c-35.797-41.068-99.223-41.08-135.03,0C135.32-25.883,39.776,11.83,39.776,89.578
			c0,1.89,0.381,4.435,0.8,5.971l76.641,280.815c1.701,75.082,63.303,135.638,138.785,135.638s137.084-60.557,138.785-135.638
			L471.426,95.55c0.413-1.514,0.8-4.051,0.8-5.973C472.226,11.867,376.7-25.902,323.516,30.805z M293.944,66.897h-75.887
			C235.284,38.187,276.743,38.228,293.944,66.897z M297.85,112.259l-23.674,238.236h-36.35L214.15,112.259H297.85z M159.49,66.897
			H92.07C108.222,42.968,143.329,42.952,159.49,66.897z M157.178,350.495l-65.02-238.236h76.408
			c0.995,10.016,22.487,226.288,23.674,238.236H157.178z M256.001,466.638c-43.717,0-80.519-30.17-90.68-70.781
			c18.745,0,159.91,0,181.36,0C336.52,436.468,299.718,466.638,256.001,466.638z M354.825,350.495h-35.062
			c1.187-11.947,22.679-228.22,23.674-238.236h76.408L354.825,350.495z M352.511,66.897c16.152-23.928,51.259-23.945,67.421,0
			H352.511z"/>
	</g>
</g>
</svg>